<?xml version="1.0" encoding="UTF-8" standalone="no"?>
<!-- Created with Inkscape (http://www.inkscape.org/) -->

<svg
   version="1.1"
   id="svg533"
   xml:space="preserve"
   width="417.18704"
   height="280.31573"
   viewBox="0 0 417.18704 280.31573"
   sodipodi:docname="logo-txt.svg"
   inkscape:version="1.1 (c68e22c387, 2021-05-23)"
   xmlns:inkscape="http://www.inkscape.org/namespaces/inkscape"
   xmlns:sodipodi="http://sodipodi.sourceforge.net/DTD/sodipodi-0.dtd"
   xmlns="http://www.w3.org/2000/svg"
   xmlns:svg="http://www.w3.org/2000/svg"><defs
     id="defs537"><clipPath
       clipPathUnits="userSpaceOnUse"
       id="clipPath547"><path
         d="M 0,515.91 H 728.5 V 0 H 0 Z"
         id="path545" /></clipPath></defs><sodipodi:namedview
     id="namedview535"
     pagecolor="#ffffff"
     bordercolor="#666666"
     borderopacity="1.0"
     inkscape:pageshadow="2"
     inkscape:pageopacity="0.0"
     inkscape:pagecheckerboard="0"
     showgrid="false"
     inkscape:zoom="1.165901"
     inkscape:cx="209.70906"
     inkscape:cy="141.0926"
     inkscape:window-width="1920"
     inkscape:window-height="991"
     inkscape:window-x="-9"
     inkscape:window-y="-9"
     inkscape:window-maximized="1"
     inkscape:current-layer="g539"
     fit-margin-top="0"
     fit-margin-left="0"
     fit-margin-right="0"
     fit-margin-bottom="0" /><g
     id="g539"
     inkscape:groupmode="layer"
     inkscape:label="UltraLandshold_logo_r├©d_cmyk"
     transform="matrix(1.3333333,0,0,-1.3333333,-276.15413,484.33599)"><g
       id="g541"><g
         id="g543"
         clip-path="url(#clipPath547)"><g
           id="g549"
           transform="translate(264.7363,286.2227)"><path
             d="m 0,0 c 4.094,-26.723 17.135,-41.006 29.753,-48.635 -0.675,-2.418 -1.044,-4.965 -1.044,-7.597 0,-15.579 12.629,-28.207 28.208,-28.207 6.274,0 12.069,2.05 16.754,5.515 l 0.077,-0.103 C 60.583,-89.553 44.1,-96.098 26.116,-96.844 c -0.444,0.16 -0.887,0.321 -1.324,0.483 0.056,0 0.108,-0.002 0.164,-0.002 0,0 -0.739,0.232 -2.013,0.709 -12.064,4.724 -20.768,10.511 -26.986,16.486 -0.172,0.168 -0.344,0.332 -0.514,0.502 l -0.011,0.012 c -7.371,7.361 -12.958,17.179 -11.971,29.758 C -14.725,-25.756 -5.706,-15.875 0,0"
             style="fill:#ee2a5a;fill-opacity:1;fill-rule:nonzero;stroke:none"
             id="path551" /></g><g
           id="g553"
           transform="translate(309.9971,229.9902)"><path
             d="m 0,0 c 0,6.438 5.219,11.656 11.656,11.656 6.437,0 11.657,-5.218 11.657,-11.656 0,-6.438 -5.22,-11.656 -11.657,-11.656 C 5.219,-11.656 0,-6.438 0,0 m -13.19,0 c 0,-13.723 11.125,-24.846 24.846,-24.846 13.722,0 24.847,11.123 24.847,24.846 0,13.723 -11.125,24.846 -24.847,24.846 C -2.065,24.846 -13.19,13.723 -13.19,0"
             style="fill:#ee2a5a;fill-opacity:1;fill-rule:nonzero;stroke:none"
             id="path555" /></g><g
           id="g557"
           transform="translate(229.2129,320.5234)"><path
             d="M 0,0 C 0,1.728 1.4,3.128 3.127,3.128 4.855,3.128 6.256,1.728 6.256,0 6.256,-1.728 4.855,-3.128 3.127,-3.128 1.4,-3.128 0,-1.728 0,0 m -8.758,-23.979 2.086,-0.306 c 0.003,2.703 2.195,4.892 4.9,4.892 2.706,0 4.899,-2.193 4.899,-4.899 0,-0.493 -0.074,-0.968 -0.209,-1.416 0.818,-0.165 4.377,-0.591 5.487,4.126 1.257,5.344 1.886,7.859 6.916,7.23 5.031,-0.628 5.973,-5.343 5.031,-11.002 -0.944,-5.66 -27.036,-46.525 -23.579,-67.273 3.458,-20.748 24.836,-38.352 59.729,-38.352 0,0 -44.127,13.922 -41.496,47.467 2.515,32.067 20.749,44.012 21.062,71.047 0,0 0.945,20.118 -23.89,26.721 0,0 -8.803,3.457 -9.745,6.916 z"
             style="fill:#ee2a5a;fill-opacity:1;fill-rule:nonzero;stroke:none"
             id="path559" /></g><g
           id="g561"
           transform="translate(223.5176,320.2969)"><path
             d="m 0,0 -1.249,-4.445 c -8.831,-13.118 -13.579,-28.551 -13.579,-44.717 0,-18.26 6.057,-35.584 17.215,-49.69 0.356,-1.289 0.863,-2.789 1.576,-4.343 -12.676,14.416 -20.365,33.326 -20.365,54.033 0,18.449 6.105,35.472 16.402,49.162"
             style="fill:#ee2a5a;fill-opacity:1;fill-rule:nonzero;stroke:none"
             id="path563" /></g><g
           id="g565"
           transform="translate(345.752,214.3613)"><path
             d="m 0,0 c 9.631,9.629 16.508,21.275 20.248,33.984 l 1.529,-0.326 C 12.004,0.393 -18.32,-24.078 -54.512,-25.061 l -2.295,1.543 h 0.034 c 21.447,0 41.609,8.352 56.773,23.518"
             style="fill:#ee2a5a;fill-opacity:1;fill-rule:nonzero;stroke:none"
             id="path567" /></g><g
           id="g569"
           transform="translate(288.9785,352.998)"><path
             d="M 0,0 C 9.389,0 18.404,-1.584 26.803,-4.493 L 24.188,-5.269 C 16.464,-2.84 8.33,-1.574 0,-1.574 c -16.66,0 -32.545,-5.043 -45.914,-14.403 -0.553,0.209 -1.129,0.444 -1.697,0.703 C -34.195,-5.663 -17.762,0 0,0"
             style="fill:#ee2a5a;fill-opacity:1;fill-rule:nonzero;stroke:none"
             id="path571" /></g><g
           id="g573"
           transform="translate(374.2168,215.1426)"><path
             d="m 0,0 c 0,1.799 -1.328,3.171 -3.213,3.171 h -4.711 c -0.301,0 -0.471,-0.128 -0.515,-0.429 l -3.385,-19.276 v -0.128 c 0,-0.214 0.086,-0.301 0.344,-0.301 h 4.712 c 2.141,0 4.155,1.713 4.539,3.857 l 2.186,12.42 C 0,-0.47 0,-0.214 0,0 m 1.713,-12.679 c -0.813,-4.755 -4.326,-7.71 -9.08,-7.71 h -8.568 c -0.256,0 -0.343,0.086 -0.343,0.301 v 0.127 l 4.583,26.13 c 0.044,0.3 0.215,0.428 0.516,0.428 h 8.566 c 4.111,0 6.511,-2.269 6.511,-5.997 0,-0.555 -0.085,-1.114 -0.171,-1.713 z"
             style="fill:#ee2a5a;fill-opacity:1;fill-rule:nonzero;stroke:none"
             id="path575" /></g><g
           id="g577"
           transform="translate(392.248,207.3906)"><path
             d="m 0,0 c 0,1.8 -1.326,3.213 -3.211,3.213 -2.227,0 -4.199,-1.799 -4.541,-3.856 l -0.814,-4.711 c -0.041,-0.214 -0.041,-0.43 -0.041,-0.644 0,-1.799 1.326,-3.213 3.211,-3.213 2.228,0 4.197,1.758 4.542,3.857 l 0.813,4.711 C 0,-0.43 0,-0.216 0,0 m 1.801,-12.209 c -0.043,-0.3 -0.215,-0.428 -0.516,-0.428 h -2.57 c -0.254,0 -0.342,0.086 -0.342,0.301 v 0.127 l 0.088,0.514 v 0.128 c 0,0.215 -0.131,0.385 -0.301,0.385 -0.43,0 -1.799,-1.455 -4.455,-1.455 -3.771,0 -6.256,2.313 -6.256,5.869 0,0.47 0.045,0.942 0.131,1.414 l 0.813,4.711 c 0.728,4.284 4.369,7.282 8.738,7.282 2.441,0 3.428,-1.413 3.984,-1.413 0.17,0 0.299,0.128 0.385,0.471 l 0.129,0.514 c 0.086,0.3 0.129,0.428 0.471,0.428 h 2.57 c 0.258,0 0.387,-0.128 0.387,-0.342 V 6.211 Z"
             style="fill:#ee2a5a;fill-opacity:1;fill-rule:nonzero;stroke:none"
             id="path579" /></g><g
           id="g581"
           transform="translate(415.041,195.1816)"><path
             d="m 0,0 c -0.045,-0.3 -0.215,-0.428 -0.516,-0.428 h -2.998 c -0.257,0 -0.341,0.086 -0.341,0.301 V 0 l 2.011,11.566 c 0.045,0.213 0.045,0.472 0.045,0.686 0,1.757 -1.33,3.17 -3.215,3.17 -2.226,0 -4.197,-1.799 -4.539,-3.856 L -11.566,0 c -0.043,-0.3 -0.215,-0.428 -0.514,-0.428 h -2.998 c -0.258,0 -0.344,0.086 -0.344,0.301 V 0 l 3.256,18.42 c 0.041,0.3 0.172,0.428 0.471,0.428 h 2.57 c 0.299,0 0.385,-0.128 0.385,-0.428 l -0.127,-0.514 v -0.13 c 0,-0.255 0.086,-0.385 0.256,-0.385 0.384,0 1.798,1.457 4.498,1.457 3.769,0 6.254,-2.313 6.254,-5.825 0,-0.472 -0.043,-0.943 -0.129,-1.457 z"
             style="fill:#ee2a5a;fill-opacity:1;fill-rule:nonzero;stroke:none"
             id="path583" /></g><g
           id="g585"
           transform="translate(445.7109,195.1816)"><path
             d="m 0,0 c -0.041,-0.3 -0.213,-0.428 -0.514,-0.428 h -2.998 c -0.256,0 -0.342,0.086 -0.342,0.301 V 0 l 2.014,11.566 c 0.041,0.213 0.041,0.427 0.041,0.643 0,1.8 -1.199,3.213 -2.783,3.213 -1.67,0 -3.77,-1.799 -4.111,-3.856 L -10.707,0 c -0.043,-0.3 -0.215,-0.428 -0.514,-0.428 h -2.998 c -0.258,0 -0.345,0.086 -0.345,0.301 V 0 l 2.015,11.566 c 0.043,0.213 0.043,0.427 0.043,0.643 0,1.8 -1.199,3.213 -2.785,3.213 -1.713,0 -3.77,-1.799 -4.111,-3.856 L -21.416,0 c -0.043,-0.3 -0.215,-0.428 -0.516,-0.428 h -2.998 c -0.256,0 -0.341,0.086 -0.341,0.301 V 0 l 3.255,18.42 c 0.043,0.3 0.17,0.428 0.471,0.428 h 2.57 c 0.256,0 0.428,-0.086 0.428,-0.256 0,-0.043 -0.043,-0.13 -0.043,-0.172 l -0.129,-0.557 c 0,-0.087 -0.043,-0.129 -0.043,-0.17 0,-0.216 0.129,-0.302 0.26,-0.302 0.555,0 2.055,1.457 4.367,1.457 3.043,0 4.155,-2.141 4.455,-2.141 0.213,0 0.729,0.514 1.715,1.113 1.113,0.686 2.442,1.028 3.983,1.028 3.726,0 6.127,-2.399 6.127,-5.869 0,-0.469 -0.045,-0.941 -0.131,-1.413 z"
             style="fill:#ee2a5a;fill-opacity:1;fill-rule:nonzero;stroke:none"
             id="path587" /></g><g
           id="g589"
           transform="translate(463.5,207.3906)"><path
             d="m 0,0 c 0,1.8 -1.328,3.213 -3.213,3.213 -2.226,0 -4.197,-1.799 -4.539,-3.856 l -0.816,-4.711 c -0.041,-0.214 -0.041,-0.43 -0.041,-0.644 0,-1.799 1.326,-3.213 3.213,-3.213 2.226,0 4.197,1.758 4.541,3.857 l 0.812,4.711 C 0,-0.43 0,-0.216 0,0 m 1.799,-12.209 c -0.041,-0.3 -0.215,-0.428 -0.514,-0.428 h -2.57 c -0.256,0 -0.342,0.086 -0.342,0.301 v 0.127 l 0.086,0.514 v 0.128 c 0,0.215 -0.129,0.385 -0.301,0.385 -0.428,0 -1.799,-1.455 -4.455,-1.455 -3.769,0 -6.254,2.313 -6.254,5.869 0,0.47 0.043,0.942 0.129,1.414 l 0.815,4.711 c 0.726,4.284 4.367,7.282 8.738,7.282 2.441,0 3.426,-1.413 3.982,-1.413 0.172,0 0.301,0.128 0.385,0.471 l 0.129,0.514 c 0.086,0.3 0.131,0.428 0.471,0.428 h 2.57 c 0.258,0 0.387,-0.128 0.387,-0.342 V 6.211 Z"
             style="fill:#ee2a5a;fill-opacity:1;fill-rule:nonzero;stroke:none"
             id="path591" /></g><g
           id="g593"
           transform="translate(483.5918,210.2598)"><path
             d="m 0,0 c -0.043,-0.256 -0.172,-0.428 -0.342,-0.428 -0.387,0 -1.029,0.3 -2.056,0.3 -2.358,0 -4.071,-1.458 -4.498,-3.811 l -1.971,-11.139 c -0.043,-0.3 -0.213,-0.428 -0.514,-0.428 h -2.998 c -0.258,0 -0.344,0.086 -0.344,0.301 v 0.127 l 3.256,18.42 c 0.045,0.3 0.172,0.428 0.473,0.428 h 2.568 c 0.256,0 0.387,-0.128 0.387,-0.342 V 3.342 L -6.297,1.971 V 1.844 c 0,-0.215 0.127,-0.387 0.301,-0.387 0.471,0 2.141,2.313 4.326,2.313 1.627,0 2.227,0 2.227,-0.472 V 3.215 Z"
             style="fill:#ee2a5a;fill-opacity:1;fill-rule:nonzero;stroke:none"
             id="path595" /></g><g
           id="g597"
           transform="translate(495.1172,207.6465)"><path
             d="m 0,0 c -0.129,-0.127 -0.215,-0.256 -0.215,-0.385 0,-0.042 0,-0.087 0.043,-0.128 L 5.053,-12.25 c 0.045,-0.087 0.045,-0.129 0.045,-0.215 0,-0.258 -0.172,-0.428 -0.557,-0.428 H 0.77 l -0.342,0.214 -3.856,8.909 c -0.086,0.172 -0.215,0.258 -0.342,0.258 -0.085,0 -0.214,-0.044 -0.343,-0.172 l -1.928,-1.67 -1.242,-7.111 c -0.043,-0.3 -0.215,-0.428 -0.514,-0.428 h -3 c -0.254,0 -0.342,0.086 -0.342,0.301 v 0.127 l 4.584,26.13 c 0.086,0.3 0.256,0.428 0.514,0.428 h 2.998 c 0.258,0 0.344,-0.083 0.344,-0.3 V 13.665 L -5.055,0.301 V 0.173 c 0,-0.214 0.129,-0.345 0.299,-0.345 0.086,0 0.258,0.045 0.387,0.172 l 6.81,6.255 0.299,0.128 h 3.641 c 0.301,0 0.43,-0.128 0.43,-0.342 0,-0.086 -0.086,-0.213 -0.258,-0.386 z"
             style="fill:#ee2a5a;fill-opacity:1;fill-rule:nonzero;stroke:none"
             id="path599" /></g><g
           id="g601"
           transform="translate(520.0059,210.1738)"><path
             d="m 0,0 c 0,-0.129 -0.086,-0.256 -0.301,-0.342 l -2.697,-1.241 c -0.129,-0.044 -0.213,-0.086 -0.258,-0.086 -0.129,0 -0.129,0.086 -0.256,0.256 C -4.369,0 -4.969,0.985 -6.768,0.985 h -1.285 c -2.269,0 -3.556,-1.069 -3.556,-2.568 0,-1.671 1.714,-1.843 4.884,-2.571 3.555,-0.814 5.27,-1.756 5.27,-4.242 0,-4.069 -3.428,-7.454 -8.311,-7.454 h -1.285 c -3.984,0 -6.211,2.271 -6.211,4.285 0,0.129 0.086,0.256 0.299,0.343 l 2.699,1.242 c 0.127,0.042 0.17,0.085 0.256,0.085 0.129,0 0.172,-0.085 0.301,-0.255 0.855,-1.286 1.328,-2.399 3.256,-2.399 h 1.283 c 2.186,0 3.686,1.283 3.686,2.781 0,1.672 -1.713,1.758 -4.969,2.485 -3.471,0.772 -5.141,1.717 -5.141,4.198 0,4.07 3.471,7.368 8.096,7.368 h 1.285 C -2.357,4.283 0,2.186 0,0"
             style="fill:#ee2a5a;fill-opacity:1;fill-rule:nonzero;stroke:none"
             id="path603" /></g><g
           id="g605"
           transform="translate(298.3442,160.2988)"><path
             d="m 0,0 c -0.771,-4.37 -4.283,-7.283 -8.996,-7.283 h -1.285 c -4.112,0 -6.553,2.313 -6.553,5.783 0,0.473 0.043,0.985 0.129,1.5 l 3.469,19.705 c 0.043,0.299 0.215,0.427 0.514,0.427 h 2.998 c 0.258,0 0.342,-0.085 0.342,-0.3 V 19.705 L -12.851,0 c -0.043,-0.215 -0.043,-0.473 -0.043,-0.687 0,-1.797 1.33,-3.17 3.212,-3.17 h 1.286 c 2.143,0 4.156,1.716 4.541,3.857 l 3.47,19.705 c 0.043,0.299 0.213,0.427 0.513,0.427 h 2.999 c 0.258,0 0.344,-0.085 0.344,-0.3 v -0.127 z"
             style="fill:#ee2a5a;fill-opacity:1;fill-rule:nonzero;stroke:none"
             id="path607" /></g><g
           id="g609"
           transform="translate(305.6665,153.873)"><path
             d="m 0,0 c -0.043,-0.299 -0.214,-0.43 -0.514,-0.43 h -2.998 c -0.258,0 -0.342,0.087 -0.342,0.301 V 0 l 4.583,26.131 c 0.042,0.299 0.214,0.427 0.514,0.427 h 2.998 c 0.257,0 0.342,-0.085 0.342,-0.3 v -0.127 z"
             style="fill:#ee2a5a;fill-opacity:1;fill-rule:nonzero;stroke:none"
             id="path611" /></g><g
           id="g613"
           transform="translate(322.5024,169.7227)"><path
             d="m 0,0 c -0.043,-0.299 -0.215,-0.43 -0.516,-0.43 h -2.998 c -0.299,0 -0.427,-0.128 -0.513,-0.427 l -1.499,-8.567 c -0.043,-0.259 -0.043,-0.472 -0.043,-0.686 0,-1.585 1.028,-2.785 2.913,-3.126 0.172,-0.086 0.256,-0.172 0.256,-0.344 v -0.086 l -0.471,-2.568 c -0.084,-0.344 -0.3,-0.43 -0.857,-0.43 -3.169,0 -5.783,2.398 -5.783,5.912 0,0.428 0.044,0.856 0.128,1.328 l 1.5,8.567 v 0.128 c 0,0.213 -0.086,0.299 -0.342,0.299 h -2.357 c -0.256,0 -0.384,0.086 -0.384,0.258 0,0.042 0.043,0.129 0.043,0.172 l 0.341,1.5 5.869,5.225 0.3,0.128 h 1.328 c 0.257,0 0.343,-0.087 0.343,-0.3 V 6.426 l -0.514,-3 V 3.299 c 0,-0.217 0.085,-0.3 0.342,-0.3 h 2.998 c 0.259,0 0.387,-0.131 0.387,-0.345 V 2.568 Z"
             style="fill:#ee2a5a;fill-opacity:1;fill-rule:nonzero;stroke:none"
             id="path615" /></g><g
           id="g617"
           transform="translate(336.6763,168.9512)"><path
             d="m 0,0 c -0.042,-0.258 -0.17,-0.43 -0.342,-0.43 -0.386,0 -1.027,0.303 -2.056,0.303 -2.356,0 -4.071,-1.457 -4.498,-3.814 l -1.971,-11.137 c -0.041,-0.299 -0.213,-0.43 -0.514,-0.43 h -2.998 c -0.257,0 -0.343,0.087 -0.343,0.301 v 0.129 L -9.467,3.34 c 0.045,0.3 0.173,0.431 0.473,0.431 h 2.57 c 0.256,0 0.385,-0.131 0.385,-0.345 V 3.34 L -6.296,1.972 v -0.13 c 0,-0.215 0.128,-0.387 0.3,-0.387 0.472,0 2.142,2.316 4.326,2.316 1.628,0 2.229,0 2.229,-0.472 V 3.213 Z"
             style="fill:#ee2a5a;fill-opacity:1;fill-rule:nonzero;stroke:none"
             id="path619" /></g><g
           id="g621"
           transform="translate(349.646,166.0811)"><path
             d="m 0,0 c 0,1.799 -1.328,3.212 -3.214,3.212 -2.226,0 -4.197,-1.799 -4.54,-3.854 L -8.567,-5.355 C -8.61,-5.569 -8.61,-5.782 -8.61,-5.997 c 0,-1.799 1.328,-3.211 3.213,-3.211 2.226,0 4.198,1.754 4.541,3.853 l 0.812,4.713 C 0,-0.427 0,-0.214 0,0 m 1.799,-12.208 c -0.044,-0.299 -0.214,-0.43 -0.513,-0.43 h -2.571 c -0.259,0 -0.343,0.087 -0.343,0.301 v 0.129 l 0.084,0.515 v 0.128 c 0,0.212 -0.127,0.385 -0.299,0.385 -0.428,0 -1.8,-1.458 -4.455,-1.458 -3.768,0 -6.253,2.313 -6.253,5.869 0,0.472 0.042,0.944 0.128,1.414 l 0.813,4.713 c 0.729,4.284 4.371,7.283 8.74,7.283 2.441,0 3.426,-1.415 3.983,-1.415 0.173,0 0.3,0.128 0.386,0.47 L 1.628,6.21 c 0.085,0.3 0.127,0.431 0.471,0.431 h 2.57 c 0.256,0 0.385,-0.131 0.385,-0.345 V 6.21 Z"
             style="fill:#ee2a5a;fill-opacity:1;fill-rule:nonzero;stroke:none"
             id="path623" /></g><g
           id="g625"
           transform="translate(360.7856,153.873)"><path
             d="m 0,0 c -0.043,-0.299 -0.215,-0.43 -0.514,-0.43 h -2.999 c -0.257,0 -0.342,0.087 -0.342,0.301 V 0 l 4.584,26.131 c 0.041,0.299 0.213,0.427 0.513,0.427 H 4.24 c 0.258,0 0.343,-0.085 0.343,-0.3 v -0.127 z"
             style="fill:#ee2a5a;fill-opacity:1;fill-rule:nonzero;stroke:none"
             id="path627" /></g><g
           id="g629"
           transform="translate(378.4844,166.0811)"><path
             d="m 0,0 c 0,1.799 -1.328,3.212 -3.213,3.212 -2.226,0 -4.197,-1.799 -4.541,-3.854 l -0.812,-4.713 c -0.043,-0.214 -0.043,-0.427 -0.043,-0.642 0,-1.799 1.328,-3.211 3.211,-3.211 2.228,0 4.199,1.754 4.543,3.853 l 0.812,4.713 C 0,-0.427 0,-0.214 0,0 m 1.799,-12.208 c -0.043,-0.299 -0.213,-0.43 -0.514,-0.43 h -2.57 c -0.256,0 -0.342,0.087 -0.342,0.301 v 0.129 l 0.086,0.515 v 0.128 c 0,0.212 -0.129,0.385 -0.301,0.385 -0.428,0 -1.799,-1.458 -4.455,-1.458 -3.769,0 -6.254,2.313 -6.254,5.869 0,0.472 0.043,0.944 0.129,1.414 l 0.813,4.713 c 0.728,4.284 4.371,7.283 8.74,7.283 2.439,0 3.426,-1.415 3.984,-1.415 0.17,0 0.299,0.128 0.385,0.47 L 1.629,6.21 C 1.715,6.51 1.756,6.641 2.1,6.641 h 2.568 c 0.258,0 0.387,-0.131 0.387,-0.345 V 6.21 Z"
             style="fill:#ee2a5a;fill-opacity:1;fill-rule:nonzero;stroke:none"
             id="path631" /></g><g
           id="g633"
           transform="translate(401.2754,153.873)"><path
             d="m 0,0 c -0.043,-0.299 -0.213,-0.43 -0.514,-0.43 h -2.998 c -0.258,0 -0.343,0.087 -0.343,0.301 V 0 l 2.013,11.566 c 0.043,0.215 0.043,0.469 0.043,0.684 0,1.757 -1.328,3.17 -3.213,3.17 -2.228,0 -4.199,-1.799 -4.541,-3.854 L -11.566,0 c -0.043,-0.299 -0.213,-0.43 -0.514,-0.43 h -2.998 c -0.258,0 -0.344,0.087 -0.344,0.301 V 0 l 3.256,18.418 c 0.043,0.3 0.172,0.431 0.473,0.431 h 2.568 c 0.301,0 0.387,-0.131 0.387,-0.431 l -0.129,-0.514 v -0.128 c 0,-0.256 0.086,-0.385 0.256,-0.385 0.386,0 1.8,1.458 4.5,1.458 3.767,0 6.254,-2.316 6.254,-5.828 0,-0.471 -0.045,-0.941 -0.131,-1.455 z"
             style="fill:#ee2a5a;fill-opacity:1;fill-rule:nonzero;stroke:none"
             id="path635" /></g><g
           id="g637"
           transform="translate(418.7949,166.0811)"><path
             d="m 0,0 c 0,1.799 -1.326,3.212 -3.211,3.212 -2.227,0 -4.197,-1.799 -4.541,-3.854 l -0.814,-4.713 c -0.043,-0.214 -0.043,-0.427 -0.043,-0.642 0,-1.799 1.328,-3.211 3.213,-3.211 2.226,0 4.197,1.754 4.541,3.853 l 0.814,4.713 C 0,-0.427 0,-0.214 0,0 m 1.799,-12.208 c -0.041,-0.299 -0.213,-0.43 -0.512,-0.43 h -2.572 c -0.256,0 -0.342,0.087 -0.342,0.301 v 0.129 l 0.086,0.515 v 0.128 c 0,0.212 -0.129,0.385 -0.299,0.385 -0.43,0 -1.799,-1.458 -4.457,-1.458 -3.769,0 -6.254,2.313 -6.254,5.869 0,0.472 0.045,0.944 0.131,1.414 l 0.813,4.713 c 0.341,1.883 1.371,3.768 3.041,5.268 1.498,1.328 3.298,2.015 5.312,2.015 2.356,0 3.383,-1.415 3.94,-1.415 0.171,0 0.343,0.171 0.386,0.47 l 1.455,8.227 c 0.086,0.299 0.258,0.427 0.516,0.427 h 2.998 c 0.258,0 0.342,-0.085 0.342,-0.3 v -0.127 z"
             style="fill:#ee2a5a;fill-opacity:1;fill-rule:nonzero;stroke:none"
             id="path639" /></g><g
           id="g641"
           transform="translate(442.2246,168.8652)"><path
             d="m 0,0 c 0,-0.127 -0.086,-0.258 -0.299,-0.344 l -2.699,-1.24 c -0.129,-0.043 -0.215,-0.087 -0.256,-0.087 -0.129,0 -0.129,0.087 -0.258,0.258 C -4.367,0 -4.967,0.986 -6.768,0.986 h -1.285 c -2.269,0 -3.554,-1.072 -3.554,-2.57 0,-1.672 1.712,-1.842 4.882,-2.571 3.557,-0.814 5.27,-1.755 5.27,-4.241 0,-4.069 -3.428,-7.454 -8.311,-7.454 h -1.285 c -3.982,0 -6.213,2.272 -6.213,4.285 0,0.127 0.086,0.255 0.301,0.341 l 2.699,1.244 c 0.129,0.042 0.172,0.085 0.258,0.085 0.127,0 0.172,-0.085 0.299,-0.257 0.857,-1.286 1.328,-2.399 3.256,-2.399 h 1.285 c 2.184,0 3.684,1.285 3.684,2.784 0,1.671 -1.713,1.757 -4.969,2.486 -3.469,0.771 -5.141,1.713 -5.141,4.197 0,4.07 3.471,7.367 8.096,7.367 h 1.285 C -2.355,4.283 0,2.186 0,0"
             style="fill:#ee2a5a;fill-opacity:1;fill-rule:nonzero;stroke:none"
             id="path643" /></g><g
           id="g645"
           transform="translate(459.5332,153.873)"><path
             d="m 0,0 c -0.043,-0.299 -0.215,-0.43 -0.514,-0.43 h -2.998 c -0.258,0 -0.343,0.087 -0.343,0.301 V 0 l 2.013,11.566 c 0.043,0.215 0.043,0.469 0.043,0.684 0,1.757 -1.328,3.17 -3.213,3.17 -2.228,0 -4.197,-1.799 -4.541,-3.854 L -11.564,0 c -0.043,-0.299 -0.215,-0.43 -0.516,-0.43 h -2.998 c -0.258,0 -0.344,0.087 -0.344,0.301 V 0 l 4.584,26.131 c 0.086,0.299 0.258,0.427 0.514,0.427 h 2.998 c 0.258,0 0.344,-0.085 0.344,-0.3 v -0.127 l -1.457,-8.227 v -0.128 c 0,-0.256 0.085,-0.385 0.257,-0.385 0.473,0 1.926,1.458 4.198,1.458 3.726,0 6.127,-2.4 6.127,-5.87 0,-0.471 -0.043,-0.944 -0.129,-1.413 z"
             style="fill:#ee2a5a;fill-opacity:1;fill-rule:nonzero;stroke:none"
             id="path647" /></g><g
           id="g649"
           transform="translate(477.6133,166.5527)"><path
             d="m 0,0 c 0,1.799 -1.328,3.17 -3.344,3.17 -2.054,0 -4.068,-1.801 -4.41,-3.856 L -8.74,-6.254 c -0.041,-0.259 -0.041,-0.473 -0.041,-0.686 0,-1.798 1.326,-3.171 3.211,-3.171 2.226,0 4.156,1.757 4.541,3.857 l 0.986,5.568 C 0,-0.472 0,-0.213 0,0 m 2.826,-6.254 c -0.771,-4.326 -4.283,-7.283 -8.996,-7.283 -4.111,0 -6.553,2.271 -6.553,5.783 0,0.473 0.041,0.985 0.129,1.5 l 0.985,5.568 c 0.771,4.371 4.281,7.282 8.994,7.282 4.113,0 6.554,-2.271 6.554,-5.782 0,-0.472 -0.043,-0.986 -0.128,-1.5 z"
             style="fill:#ee2a5a;fill-opacity:1;fill-rule:nonzero;stroke:none"
             id="path651" /></g><g
           id="g653"
           transform="translate(487.332,153.873)"><path
             d="m 0,0 c -0.041,-0.299 -0.213,-0.43 -0.514,-0.43 h -2.998 c -0.258,0 -0.343,0.087 -0.343,0.301 V 0 l 4.584,26.131 c 0.042,0.299 0.214,0.427 0.513,0.427 h 3 c 0.256,0 0.342,-0.085 0.342,-0.3 v -0.127 z"
             style="fill:#ee2a5a;fill-opacity:1;fill-rule:nonzero;stroke:none"
             id="path655" /></g><g
           id="g657"
           transform="translate(504.8438,166.0811)"><path
             d="m 0,0 c 0,1.799 -1.328,3.212 -3.213,3.212 -2.226,0 -4.197,-1.799 -4.541,-3.854 l -0.814,-4.713 c -0.043,-0.214 -0.043,-0.427 -0.043,-0.642 0,-1.799 1.33,-3.211 3.215,-3.211 2.226,0 4.197,1.754 4.541,3.853 l 0.812,4.713 C 0,-0.427 0,-0.214 0,0 m 1.799,-12.208 c -0.043,-0.299 -0.213,-0.43 -0.514,-0.43 h -2.57 c -0.258,0 -0.342,0.087 -0.342,0.301 v 0.129 l 0.084,0.515 v 0.128 c 0,0.212 -0.127,0.385 -0.299,0.385 -0.429,0 -1.799,-1.458 -4.455,-1.458 -3.769,0 -6.254,2.313 -6.254,5.869 0,0.472 0.043,0.944 0.129,1.414 l 0.813,4.713 c 0.343,1.883 1.371,3.768 3.041,5.268 1.5,1.328 3.298,2.015 5.312,2.015 2.358,0 3.383,-1.415 3.942,-1.415 0.171,0 0.341,0.171 0.386,0.47 l 1.455,8.227 c 0.084,0.299 0.258,0.427 0.514,0.427 h 2.998 c 0.258,0 0.344,-0.085 0.344,-0.3 v -0.127 z"
             style="fill:#ee2a5a;fill-opacity:1;fill-rule:nonzero;stroke:none"
             id="path659" /></g><g
           id="g661"
           transform="translate(365.458,241.9111)"><path
             d="M 0,0 C 6.473,15.86 8.043,33.876 3.347,51.717 0.104,64.035 -5.788,74.948 -13.543,84.023 -13.78,83.467 -13.991,82.905 -14.177,82.356 -6.711,73.431 -1.227,62.905 1.824,51.316 5.939,35.684 5.277,19.549 0.076,4.617 Z"
             style="fill:#ee2a5a;fill-opacity:1;fill-rule:nonzero;stroke:none"
             id="path663" /></g><g
           id="g665"
           transform="translate(314.7168,298.54)"><path
             d="m 0,0 c 0.991,-15.036 5.069,-27.827 8,-35.33 l 3.027,-0.588 c 0,0 -0.381,0.81 -0.976,2.317 0.316,-0.767 0.64,-1.54 0.976,-2.317 l 43.127,-8.692 c 0,0 -16.269,19.392 -21.236,43.684 z"
             style="fill:#ee2a5a;fill-opacity:1;fill-rule:nonzero;stroke:none"
             id="path667" /></g><g
           id="g669"
           transform="translate(379.5684,363.252)"><path
             d="m 0,0 -55.85,-18.746 c -5.467,-10.526 -8.086,-21.305 -8.918,-31.556 l 31.705,3.952 C -31.447,-30.191 -22.678,-13.563 0,0"
             style="fill:#ee2a5a;fill-opacity:1;fill-rule:nonzero;stroke:none"
             id="path671" /></g><g
           id="g673"
           transform="translate(302.5566,311.4238)"><path
             d="m 0,0 c 1.046,13.102 4.553,22.654 7.379,28.455 l -25.983,-8.722 c 0,0 -11.832,-6.774 -12.99,-23.671 z"
             style="fill:#ee2a5a;fill-opacity:1;fill-rule:nonzero;stroke:none"
             id="path675" /></g><g
           id="g677"
           transform="translate(302.3564,298.8877)"><path
             d="m 0,0 -31.246,0.878 c 1.463,-18.09 7.895,-25.912 23.482,-30.996 0.014,-0.035 0.025,-0.069 0.038,-0.104 L 6.17,-32.921 C 2.226,-20.592 0.434,-9.601 0,0"
             style="fill:#ee2a5a;fill-opacity:1;fill-rule:nonzero;stroke:none"
             id="path679" /></g></g></g></g></svg>
