<?xml version="1.0" encoding="UTF-8" standalone="no"?>
<!-- Created with Inkscape (http://www.inkscape.org/) -->

<svg
   version="1.1"
   id="svg533"
   xml:space="preserve"
   width="60.837513mm"
   height="61.366291mm"
   viewBox="0 0 229.93706 231.93559"
   sodipodi:docname="UltraLandshold_icon_rod_cmyk.svg"
   inkscape:version="1.1 (c68e22c387, 2021-05-23)"
   xmlns:inkscape="http://www.inkscape.org/namespaces/inkscape"
   xmlns:sodipodi="http://sodipodi.sourceforge.net/DTD/sodipodi-0.dtd"
   xmlns="http://www.w3.org/2000/svg"
   xmlns:svg="http://www.w3.org/2000/svg"><defs
     id="defs537"><clipPath
       clipPathUnits="userSpaceOnUse"
       id="clipPath547"><path
         d="M 0,515.91 H 728.5 V 0 H 0 Z"
         id="path545" /></clipPath></defs><sodipodi:namedview
     id="namedview535"
     pagecolor="#ffffff"
     bordercolor="#666666"
     borderopacity="1.0"
     inkscape:pageshadow="2"
     inkscape:pageopacity="0.0"
     inkscape:pagecheckerboard="0"
     showgrid="false"
     inkscape:zoom="1.165901"
     inkscape:cx="104.21125"
     inkscape:cy="89.630252"
     inkscape:window-width="1920"
     inkscape:window-height="991"
     inkscape:window-x="-9"
     inkscape:window-y="-9"
     inkscape:window-maximized="1"
     inkscape:current-layer="g541"
     units="mm"
     fit-margin-top="0"
     fit-margin-left="0"
     fit-margin-right="0"
     fit-margin-bottom="0"
     inkscape:document-units="mm" /><g
     id="g539"
     inkscape:groupmode="layer"
     inkscape:label="UltraLandshold_logo_r├©d_cmyk"
     transform="matrix(1.3333333,0,0,-1.3333333,-276.15413,484.33599)"><g
       id="g541"><g
         id="g324"><g
           id="g549"
           transform="translate(264.7363,286.2227)"><path
             d="m 0,0 c 4.094,-26.723 17.135,-41.006 29.753,-48.635 -0.675,-2.418 -1.044,-4.965 -1.044,-7.597 0,-15.579 12.629,-28.207 28.208,-28.207 6.274,0 12.069,2.05 16.754,5.515 l 0.077,-0.103 C 60.583,-89.553 44.1,-96.098 26.116,-96.844 c -0.444,0.16 -0.887,0.321 -1.324,0.483 0.056,0 0.108,-0.002 0.164,-0.002 0,0 -0.739,0.232 -2.013,0.709 -12.064,4.724 -20.768,10.511 -26.986,16.486 -0.172,0.168 -0.344,0.332 -0.514,0.502 l -0.011,0.012 c -7.371,7.361 -12.958,17.179 -11.971,29.758 C -14.725,-25.756 -5.706,-15.875 0,0"
             style="fill:#ee2a5a;fill-opacity:1;fill-rule:nonzero;stroke:none"
             id="path551" /></g><g
           id="g553"
           transform="translate(309.9971,229.9902)"><path
             d="m 0,0 c 0,6.438 5.219,11.656 11.656,11.656 6.437,0 11.657,-5.218 11.657,-11.656 0,-6.438 -5.22,-11.656 -11.657,-11.656 C 5.219,-11.656 0,-6.438 0,0 m -13.19,0 c 0,-13.723 11.125,-24.846 24.846,-24.846 13.722,0 24.847,11.123 24.847,24.846 0,13.723 -11.125,24.846 -24.847,24.846 C -2.065,24.846 -13.19,13.723 -13.19,0"
             style="fill:#ee2a5a;fill-opacity:1;fill-rule:nonzero;stroke:none"
             id="path555" /></g><g
           id="g557"
           transform="translate(229.2129,320.5234)"><path
             d="M 0,0 C 0,1.728 1.4,3.128 3.127,3.128 4.855,3.128 6.256,1.728 6.256,0 6.256,-1.728 4.855,-3.128 3.127,-3.128 1.4,-3.128 0,-1.728 0,0 m -8.758,-23.979 2.086,-0.306 c 0.003,2.703 2.195,4.892 4.9,4.892 2.706,0 4.899,-2.193 4.899,-4.899 0,-0.493 -0.074,-0.968 -0.209,-1.416 0.818,-0.165 4.377,-0.591 5.487,4.126 1.257,5.344 1.886,7.859 6.916,7.23 5.031,-0.628 5.973,-5.343 5.031,-11.002 -0.944,-5.66 -27.036,-46.525 -23.579,-67.273 3.458,-20.748 24.836,-38.352 59.729,-38.352 0,0 -44.127,13.922 -41.496,47.467 2.515,32.067 20.749,44.012 21.062,71.047 0,0 0.945,20.118 -23.89,26.721 0,0 -8.803,3.457 -9.745,6.916 z"
             style="fill:#ee2a5a;fill-opacity:1;fill-rule:nonzero;stroke:none"
             id="path559" /></g><g
           id="g561"
           transform="translate(223.5176,320.2969)"><path
             d="m 0,0 -1.249,-4.445 c -8.831,-13.118 -13.579,-28.551 -13.579,-44.717 0,-18.26 6.057,-35.584 17.215,-49.69 0.356,-1.289 0.863,-2.789 1.576,-4.343 -12.676,14.416 -20.365,33.326 -20.365,54.033 0,18.449 6.105,35.472 16.402,49.162"
             style="fill:#ee2a5a;fill-opacity:1;fill-rule:nonzero;stroke:none"
             id="path563" /></g><g
           id="g565"
           transform="translate(345.752,214.3613)"><path
             d="m 0,0 c 9.631,9.629 16.508,21.275 20.248,33.984 l 1.529,-0.326 C 12.004,0.393 -18.32,-24.078 -54.512,-25.061 l -2.295,1.543 h 0.034 c 21.447,0 41.609,8.352 56.773,23.518"
             style="fill:#ee2a5a;fill-opacity:1;fill-rule:nonzero;stroke:none"
             id="path567" /></g><g
           id="g569"
           transform="translate(288.9785,352.998)"><path
             d="M 0,0 C 9.389,0 18.404,-1.584 26.803,-4.493 L 24.188,-5.269 C 16.464,-2.84 8.33,-1.574 0,-1.574 c -16.66,0 -32.545,-5.043 -45.914,-14.403 -0.553,0.209 -1.129,0.444 -1.697,0.703 C -34.195,-5.663 -17.762,0 0,0"
             style="fill:#ee2a5a;fill-opacity:1;fill-rule:nonzero;stroke:none"
             id="path571" /></g><g
           id="g661"
           transform="translate(365.458,241.9111)"><path
             d="M 0,0 C 6.473,15.86 8.043,33.876 3.347,51.717 0.104,64.035 -5.788,74.948 -13.543,84.023 -13.78,83.467 -13.991,82.905 -14.177,82.356 -6.711,73.431 -1.227,62.905 1.824,51.316 5.939,35.684 5.277,19.549 0.076,4.617 Z"
             style="fill:#ee2a5a;fill-opacity:1;fill-rule:nonzero;stroke:none"
             id="path663" /></g><g
           id="g665"
           transform="translate(314.7168,298.54)"><path
             d="m 0,0 c 0.991,-15.036 5.069,-27.827 8,-35.33 l 3.027,-0.588 c 0,0 -0.381,0.81 -0.976,2.317 0.316,-0.767 0.64,-1.54 0.976,-2.317 l 43.127,-8.692 c 0,0 -16.269,19.392 -21.236,43.684 z"
             style="fill:#ee2a5a;fill-opacity:1;fill-rule:nonzero;stroke:none"
             id="path667" /></g><g
           id="g669"
           transform="translate(379.5684,363.252)"><path
             d="m 0,0 -55.85,-18.746 c -5.467,-10.526 -8.086,-21.305 -8.918,-31.556 l 31.705,3.952 C -31.447,-30.191 -22.678,-13.563 0,0"
             style="fill:#ee2a5a;fill-opacity:1;fill-rule:nonzero;stroke:none"
             id="path671" /></g><g
           id="g673"
           transform="translate(302.5566,311.4238)"><path
             d="m 0,0 c 1.046,13.102 4.553,22.654 7.379,28.455 l -25.983,-8.722 c 0,0 -11.832,-6.774 -12.99,-23.671 z"
             style="fill:#ee2a5a;fill-opacity:1;fill-rule:nonzero;stroke:none"
             id="path675" /></g><g
           id="g677"
           transform="translate(302.3564,298.8877)"><path
             d="m 0,0 -31.246,0.878 c 1.463,-18.09 7.895,-25.912 23.482,-30.996 0.014,-0.035 0.025,-0.069 0.038,-0.104 L 6.17,-32.921 C 2.226,-20.592 0.434,-9.601 0,0"
             style="fill:#ee2a5a;fill-opacity:1;fill-rule:nonzero;stroke:none"
             id="path679" /></g></g></g></g></svg>
